<?xml version="1.0" encoding="UTF-8"?>
<svg version="1.1" xmlns="http://www.w3.org/2000/svg" width="522" height="390">
<path d="M0 0 C172.26 0 344.52 0 522 0 C522 128.7 522 257.4 522 390 C349.74 390 177.48 390 0 390 C0 261.3 0 132.6 0 0 Z " fill="#FDF8F5" transform="translate(0,0)"/>
<path d="M0 0 C-0.72316406 0.47179687 -0.72316406 0.47179687 -1.4609375 0.953125 C-6.25371352 4.09388748 -6.25371352 4.09388748 -9 9 C-8.38382813 8.67644531 -7.76765625 8.35289062 -7.1328125 8.01953125 C3.17447807 4.66516362 18.11977333 5.79384636 28 10 C28.90975586 10.38720215 28.90975586 10.38720215 29.83789062 10.78222656 C45.16489476 17.46835445 56.23692378 27.04889023 64 42 C64.75 44.4375 64.75 44.4375 65 46 C66.65684137 42.2477416 67.50208163 38.73646939 68.125 34.6875 C68.29257813 33.61886719 68.46015625 32.55023438 68.6328125 31.44921875 C68.81457031 30.23685547 68.81457031 30.23685547 69 29 C69.33 29 69.66 29 70 29 C70.49404111 42.7233643 69.54354879 53.37983672 60 64 C54.18057125 69.67253054 48.31378222 70.50454246 40.5 70.5 C33.81796305 70.36069597 27.48293781 69.70044271 21 68 C21 69.65 21 71.3 21 73 C21.71542969 73.27585937 22.43085937 73.55171875 23.16796875 73.8359375 C25.95738855 74.98248522 28.62290358 76.26227115 31.3125 77.625 C32.63701172 78.29402344 32.63701172 78.29402344 33.98828125 78.9765625 C34.65214844 79.31429687 35.31601563 79.65203125 36 80 C35.78125 81.8203125 35.78125 81.8203125 35 84 C28.59350661 89.01491901 20.35526018 91.46918541 12.6640625 93.81982422 C8.46653874 95.10928695 8.46653874 95.10928695 5.50390625 98.1796875 C5.33761719 98.78039062 5.17132813 99.38109375 5 100 C6.78857422 99.65775391 6.78857422 99.65775391 8.61328125 99.30859375 C10.17961479 99.01783722 11.74602513 98.72749414 13.3125 98.4375 C14.09818359 98.28603516 14.88386719 98.13457031 15.69335938 97.97851562 C16.45068359 97.83994141 17.20800781 97.70136719 17.98828125 97.55859375 C18.68477783 97.42767334 19.38127441 97.29675293 20.09887695 97.16186523 C22 97 22 97 25 98 C23.9378125 98.32613281 22.875625 98.65226562 21.78125 98.98828125 C17.51403937 100.30429445 13.25479232 101.64440586 9 103 C7.60974609 103.44279297 7.60974609 103.44279297 6.19140625 103.89453125 C3.87549733 104.65293739 3.87549733 104.65293739 1 106 C0.505 107.485 0.505 107.485 0 109 C2.35515568 108.71507769 4.70889434 108.42225086 7.0625 108.125 C7.71927734 108.04636719 8.37605469 107.96773438 9.05273438 107.88671875 C13.52191568 107.31431129 17.66738318 106.27429906 22 105 C24.9375 104.875 24.9375 104.875 27 105 C24.88915647 107.11084353 23.97745486 107.46770984 21.19140625 108.25390625 C20.07088867 108.57584961 20.07088867 108.57584961 18.92773438 108.90429688 C17.75694336 109.23010742 17.75694336 109.23010742 16.5625 109.5625 C15.02204547 110.00098623 13.48167742 110.4397764 11.94140625 110.87890625 C11.25763916 111.0704126 10.57387207 111.26191895 9.86938477 111.45922852 C8.23399096 111.93231161 6.61508157 112.46163948 5 113 C4.505 114.485 4.505 114.485 4 116 C10.4140943 115.65232012 16.0523022 114.95812733 22.02734375 112.5234375 C24.36837047 111.90225417 25.73104591 112.23860601 28 113 C25.8765984 113.83739781 23.7512272 114.66980283 21.625 115.5 C20.44164063 115.9640625 19.25828125 116.428125 18.0390625 116.90625 C15 118 15 118 13 118 C13 118.99 13 119.98 13 121 C22.66855896 119.37536509 31.04765777 117.0975222 40 113 C41.66300848 112.32425964 43.32859071 111.65468559 45 111 C38.47424397 119.0088824 25.91995573 122.68914871 16 124 C-2.66854142 125.02299606 -19.03387967 122.20572686 -33.5625 109.5625 C-40.11376117 103.15437563 -45.30271691 96.39197279 -49 88 C-49.556875 86.80375 -50.11375 85.6075 -50.6875 84.375 C-55.86424547 71.06336878 -54.55197321 54.40063716 -48.9296875 41.54370117 C-46.76463167 36.9888372 -44.06903524 32.99748287 -41 29 C-40.67 29 -40.34 29 -40 29 C-39.98598145 29.91942383 -39.98598145 29.91942383 -39.97167969 30.85742188 C-39.6181763 49.39208948 -37.40557478 65.18885044 -29 82 C-27.515 82.495 -27.515 82.495 -26 83 C-27.17855732 76.29225357 -28.47648314 69.63818061 -30 63 C-27.76091394 65.06477168 -26.34889034 66.94929158 -25.02734375 69.6875 C-24.51397461 70.73550781 -24.51397461 70.73550781 -23.99023438 71.8046875 C-23.64283203 72.52914062 -23.29542969 73.25359375 -22.9375 74 C-22.24007027 75.43836883 -21.54091412 76.87590213 -20.83984375 78.3125 C-20.53425537 78.94800781 -20.22866699 79.58351563 -19.91381836 80.23828125 C-17.89007107 84.14748166 -17.89007107 84.14748166 -14 86 C-15.27024448 79.1868705 -17.41654193 73.12353985 -20.07421875 66.72265625 C-20.37972656 65.82417969 -20.68523437 64.92570312 -21 64 C-20.505 63.01 -20.505 63.01 -20 62 C-19.68772461 62.59538574 -19.37544922 63.19077148 -19.05371094 63.80419922 C-17.63087391 66.50084925 -16.19071613 69.18786279 -14.75 71.875 C-14.01330078 73.28072266 -14.01330078 73.28072266 -13.26171875 74.71484375 C-12.77832031 75.61074219 -12.29492188 76.50664062 -11.796875 77.4296875 C-11.35698242 78.25710449 -10.91708984 79.08452148 -10.46386719 79.93701172 C-8.84479547 82.21872553 -7.57579043 82.99187228 -5 84 C-6.06480688 77.13791123 -8.41752635 71.74319453 -11.69946289 65.69873047 C-12.52013062 64.16000519 -13.26667562 62.58221565 -14 61 C-13.505 60.01 -13.505 60.01 -13 59 C-12.39671875 59.96421875 -11.7934375 60.9284375 -11.171875 61.921875 C-10.36485689 63.19808969 -9.55754992 64.47412176 -8.75 65.75 C-8.35425781 66.38421875 -7.95851562 67.0184375 -7.55078125 67.671875 C-3.70539862 73.76582517 -3.70539862 73.76582517 2 78 C1.79672951 73.32477877 0.84217471 70.44972709 -1.6875 66.5 C-4.4099814 62.20863102 -6.47802641 57.88444094 -8.375 53.1875 C-8.63756592 52.55328125 -8.90013184 51.9190625 -9.1706543 51.265625 C-10.56741904 47.71959495 -11.30501892 44.81273655 -11 41 C-3 47 -3 47 -0.875 48.65625 C1.10051636 50.07203672 2.62607128 50.57608416 5 51 C4.6568691 46.99680611 3.49817159 45.25555576 0.58984375 42.56640625 C-7.06581983 35.02360258 -14.12200403 26.37075495 -14.6875 15.375 C-14.47548722 10.03726651 -13.54226552 6.98907014 -9.65625 3.3046875 C-3.83730715 -1.27910238 -3.83730715 -1.27910238 0 0 Z " fill="#55260F" transform="translate(91,138)"/>
<path d="M0 0 C0.33 0 0.66 0 1 0 C1.01401855 0.91942383 1.01401855 0.91942383 1.02832031 1.85742188 C1.4121243 21.98079173 4.15676 39.04067071 14.25 56.8125 C16.62287485 61.01066319 17.7863697 64.19331823 18 69 C19.01320313 69.07347656 19.01320313 69.07347656 20.046875 69.1484375 C20.93890625 69.22320312 21.8309375 69.29796875 22.75 69.375 C23.63171875 69.44460937 24.5134375 69.51421875 25.421875 69.5859375 C28.01537149 70.00246875 29.69577712 70.79302611 32 72 C35.45769191 72.58342353 35.45769191 72.58342353 39 72 C41.81331378 69.60416349 41.81331378 69.60416349 44 67 C44.66 67 45.32 67 46 67 C46 68.32 46 69.64 46 71 C47.78857422 70.65775391 47.78857422 70.65775391 49.61328125 70.30859375 C51.17961479 70.01783722 52.74602513 69.72749414 54.3125 69.4375 C55.09818359 69.28603516 55.88386719 69.13457031 56.69335938 68.97851562 C57.45068359 68.83994141 58.20800781 68.70136719 58.98828125 68.55859375 C59.68477783 68.42767334 60.38127441 68.29675293 61.09887695 68.16186523 C63 68 63 68 66 69 C64.9378125 69.32613281 63.875625 69.65226562 62.78125 69.98828125 C58.51403937 71.30429445 54.25479232 72.64440586 50 74 C48.60974609 74.44279297 48.60974609 74.44279297 47.19140625 74.89453125 C44.87549733 75.65293739 44.87549733 75.65293739 42 77 C41.505 78.485 41.505 78.485 41 80 C43.35515568 79.71507769 45.70889434 79.42225086 48.0625 79.125 C48.71927734 79.04636719 49.37605469 78.96773438 50.05273438 78.88671875 C54.52191568 78.31431129 58.66738318 77.27429906 63 76 C65.9375 75.875 65.9375 75.875 68 76 C65.88915647 78.11084353 64.97745486 78.46770984 62.19140625 79.25390625 C61.07088867 79.57584961 61.07088867 79.57584961 59.92773438 79.90429688 C58.75694336 80.23010742 58.75694336 80.23010742 57.5625 80.5625 C56.02204547 81.00098623 54.48167742 81.4397764 52.94140625 81.87890625 C52.25763916 82.0704126 51.57387207 82.26191895 50.86938477 82.45922852 C49.23399096 82.93231161 47.61508157 83.46163948 46 84 C45.505 85.485 45.505 85.485 45 87 C51.4140943 86.65232012 57.0523022 85.95812733 63.02734375 83.5234375 C65.36837047 82.90225417 66.73104591 83.23860601 69 84 C66.8765984 84.83739781 64.7512272 85.66980283 62.625 86.5 C61.44164063 86.9640625 60.25828125 87.428125 59.0390625 87.90625 C56 89 56 89 54 89 C54 89.99 54 90.98 54 92 C63.66855896 90.37536509 72.04765777 88.0975222 81 84 C82.66300848 83.32425964 84.32859071 82.65468559 86 82 C79.47424397 90.0088824 66.91995573 93.68914871 57 95 C38.33145858 96.02299606 21.96612033 93.20572686 7.4375 80.5625 C0.88623883 74.15437563 -4.30271691 67.39197279 -8 59 C-8.8353125 57.205625 -8.8353125 57.205625 -9.6875 55.375 C-14.86424547 42.06336878 -13.55197321 25.40063716 -7.9296875 12.54370117 C-5.76463167 7.9888372 -3.06903524 3.99748287 0 0 Z " fill="#592B15" transform="translate(50,167)"/>
<path d="M0 0 C0.50789063 0.38671875 1.01578125 0.7734375 1.5390625 1.171875 C2.22742188 1.69265625 2.91578125 2.2134375 3.625 2.75 C4.35074219 3.30300781 5.07648438 3.85601562 5.82421875 4.42578125 C8.14289753 6.16573055 8.14289753 6.16573055 11.4375 7.9375 C14.88028024 10.70851825 14.46700813 12.73606503 15 17 C17.5173876 19.7271699 19.00066226 20.86055752 22.6875 21.375 C25.18923519 21.20063253 25.18923519 21.20063253 27 19 C29.375 19.0625 29.375 19.0625 32 20 C36 24.21621622 36 24.21621622 36 27 C34.68 27 33.36 27 32 27 C32 28.65 32 30.3 32 32 C32.71542969 32.27585938 33.43085937 32.55171875 34.16796875 32.8359375 C36.95738855 33.98248522 39.62290358 35.26227115 42.3125 36.625 C43.19550781 37.07101563 44.07851562 37.51703125 44.98828125 37.9765625 C45.65214844 38.31429687 46.31601563 38.65203125 47 39 C46.78125 40.8203125 46.78125 40.8203125 46 43 C39.09558614 48.40468462 30.03687462 50.94459893 21.8203125 53.703125 C15.89574244 55.46420338 15.89574244 55.46420338 11.125 59.125 C9 61 9 61 5.5 61.375 C2 61 2 61 0.10546875 60.01171875 C-2.39575318 58.80983289 -4.42831421 58.62905352 -7.1875 58.4375 C-11.90063091 58.09936909 -11.90063091 58.09936909 -13 57 C-13.53261552 54.75316813 -13.96301616 52.49334521 -14.40234375 50.2265625 C-14.942654 47.73931792 -14.942654 47.73931792 -17 45 C-17 44.01 -17 43.02 -17 42 C-16.34 42 -15.68 42 -15 42 C-16.17855732 35.29225357 -17.47648314 28.63818061 -19 22 C-16.76091394 24.06477168 -15.34889034 25.94929158 -14.02734375 28.6875 C-13.68509766 29.38617188 -13.34285156 30.08484375 -12.99023438 30.8046875 C-12.46913086 31.89136719 -12.46913086 31.89136719 -11.9375 33 C-11.24007027 34.43836883 -10.54091412 35.87590213 -9.83984375 37.3125 C-9.53425537 37.94800781 -9.22866699 38.58351562 -8.91381836 39.23828125 C-6.89007107 43.14748166 -6.89007107 43.14748166 -3 45 C-4.27024448 38.1868705 -6.41654193 32.12353985 -9.07421875 25.72265625 C-9.37972656 24.82417969 -9.68523437 23.92570312 -10 23 C-9.67 22.34 -9.34 21.68 -9 21 C-8.68772461 21.59538574 -8.37544922 22.19077148 -8.05371094 22.80419922 C-6.63087391 25.50084925 -5.19071613 28.18786279 -3.75 30.875 C-3.25886719 31.81214844 -2.76773438 32.74929687 -2.26171875 33.71484375 C-1.53662109 35.05869141 -1.53662109 35.05869141 -0.796875 36.4296875 C-0.35698242 37.25710449 0.08291016 38.08452148 0.53613281 38.93701172 C2.15520453 41.21872553 3.42420957 41.99187228 6 43 C4.93519312 36.13791123 2.58247365 30.74319453 -0.69946289 24.69873047 C-1.52013062 23.16000519 -2.26667562 21.58221565 -3 20 C-2.67 19.34 -2.34 18.68 -2 18 C-1.39671875 18.96421875 -0.7934375 19.9284375 -0.171875 20.921875 C0.63514311 22.19808969 1.44245008 23.47412176 2.25 24.75 C2.64574219 25.38421875 3.04148437 26.0184375 3.44921875 26.671875 C7.29460138 32.76582517 7.29460138 32.76582517 13 37 C12.79672951 32.32477877 11.84217471 29.44972709 9.3125 25.5 C6.5900186 21.20863102 4.52197359 16.88444094 2.625 12.1875 C2.36243408 11.55328125 2.09986816 10.9190625 1.8293457 10.265625 C0.43258096 6.71959495 -0.30501892 3.81273655 0 0 Z " fill="#DF7F54" transform="translate(80,179)"/>
<path d="M0 0 C-0.72316406 0.47179687 -0.72316406 0.47179687 -1.4609375 0.953125 C-6.25371352 4.09388748 -6.25371352 4.09388748 -9 9 C-7.9790625 8.505 -7.9790625 8.505 -6.9375 8 C-3.43195448 6.8066228 -0.6825269 6.72722023 3 7 C3.99 7.66 4.98 8.32 6 9 C8.50896686 9.45601261 8.50896686 9.45601261 11.1875 9.625 C12.08855469 9.69976562 12.98960938 9.77453125 13.91796875 9.8515625 C14.60503906 9.90054688 15.29210937 9.94953125 16 10 C15.42585514 12.90698608 15.17593719 13.83472567 12.9375 15.9375 C10.72139227 17.84854905 10.72139227 17.84854905 10.87890625 20.62890625 C10.91886719 21.41136719 10.95882812 22.19382813 11 23 C11.68707031 23.18175781 12.37414062 23.36351562 13.08203125 23.55078125 C13.98308594 23.80214844 14.88414063 24.05351562 15.8125 24.3125 C16.70582031 24.55613281 17.59914063 24.79976562 18.51953125 25.05078125 C21.11528013 26.04411507 22.38922208 26.74705148 24 29 C24 30.32 24 31.64 24 33 C22.906875 33 21.81375 33 20.6875 33 C13.33879477 33.8660974 6.94030943 39.78066978 2 45 C-14.62249243 24.08294266 -14.62249243 24.08294266 -14.44921875 12.20703125 C-13.77359604 7.38367258 -11.7481653 4.95256417 -8 2 C-3.66906475 -1.22302158 -3.66906475 -1.22302158 0 0 Z " fill="#DE7D51" transform="translate(91,138)"/>
<path d="M0 0 C3.526875 -0.12375 3.526875 -0.12375 7.125 -0.25 C7.85348145 -0.28641602 8.58196289 -0.32283203 9.33251953 -0.36035156 C14.37853608 -0.44520457 17.21737837 0.71176357 21 4 C22.51212232 7.45627959 22.38991613 10.96022365 21.0625 14.5 C20.711875 14.995 20.36125 15.49 20 16 C19.34 16 18.68 16 18 16 C19.65 19.63 21.3 23.26 23 27 C20.36 27 17.72 27 15 27 C14.4225 25.865625 13.845 24.73125 13.25 23.5625 C11.64507365 20.62689703 11.64507365 20.62689703 8.75 19.0625 C8.1725 19.041875 7.595 19.02125 7 19 C7 21.64 7 24.28 7 27 C4.69 27 2.38 27 0 27 C0 18.09 0 9.18 0 0 Z " fill="#5B321E" transform="translate(387,184)"/>
<path d="M0 0 C2.31 0 4.62 0 7 0 C7 3.3 7 6.6 7 10 C10.63 10 14.26 10 18 10 C18 6.7 18 3.4 18 0 C20.31 0 22.62 0 25 0 C25 8.91 25 17.82 25 27 C22.69 27 20.38 27 18 27 C18 23.7 18 20.4 18 17 C14.37 17 10.74 17 7 17 C7 20.3 7 23.6 7 27 C4.69 27 2.38 27 0 27 C0 18.09 0 9.18 0 0 Z " fill="#572D19" transform="translate(447,184)"/>
<path d="M0 0 C2.97 0 5.94 0 9 0 C10.50514646 4.12314058 12.00324372 8.24880702 13.5 12.375 C13.92925781 13.550625 14.35851562 14.72625 14.80078125 15.9375 C15.20683594 17.05898437 15.61289062 18.18046875 16.03125 19.3359375 C16.40830078 20.37282715 16.78535156 21.4097168 17.17382812 22.47802734 C18 25 18 25 18 27 C15.69 27 13.38 27 11 27 C10.67 25.68 10.34 24.36 10 23 C6.37 23 2.74 23 -1 23 C-1.33 24.32 -1.66 25.64 -2 27 C-4.31 27 -6.62 27 -9 27 C-6.75424696 17.70179445 -3.45076489 8.90051656 0 0 Z " fill="#5B321E" transform="translate(361,184)"/>
<path d="M0 0 C2.88398818 1.01848952 4.51263374 2.09478329 7 4 C7.9375 6.25 7.9375 6.25 8 8 C6.02 8.66 4.04 9.32 2 10 C1.34 9.34 0.68 8.68 0 8 C-5.22547786 7.47299336 -5.22547786 7.47299336 -10 9.125 C-11.47901666 11.89815624 -11.38601984 13.91184125 -11 17 C-10.06402685 19.01951062 -10.06402685 19.01951062 -8 20 C-3.63293092 20.38991688 -1.69486103 20.46324069 2 18 C4.28397032 18.34605611 5.93409037 18.96704519 8 20 C6.47759883 24.26272329 3.96724754 25.98031034 0 28 C-4.64999936 28.83184246 -8.03474808 28.45530751 -12.3125 26.4375 C-16.59110179 22.55690768 -18.69285536 19.18840554 -19.5 13.4375 C-18.74528147 8.24881014 -16.29501395 5.44736854 -12.875 1.625 C-8.59973644 -0.79145332 -4.79823184 -0.74622579 0 0 Z " fill="#582E1A" transform="translate(204,184)"/>
<path d="M0 0 C5.61 0 11.22 0 17 0 C17 2.31 17 4.62 17 7 C13.7 7 10.4 7 7 7 C7 7.99 7 8.98 7 10 C10.3 10 13.6 10 17 10 C17 12.31 17 14.62 17 17 C13.7 17 10.4 17 7 17 C7 18.32 7 19.64 7 21 C10.3 21 13.6 21 17 21 C17 22.98 17 24.96 17 27 C11.39 27 5.78 27 0 27 C0 18.09 0 9.18 0 0 Z " fill="#5A301C" transform="translate(326,184)"/>
<path d="M0 0 C2.775602 1.44491215 4.61105909 2.54857306 5.8359375 5.48828125 C5.8565625 6.06578125 5.8771875 6.64328125 5.8984375 7.23828125 C2.8984375 9.23828125 2.8984375 9.23828125 0.8359375 8.98828125 C-1.1015625 8.23828125 -1.1015625 8.23828125 -3.1015625 6.23828125 C-6.67998836 5.77153005 -8.47399578 5.83599489 -11.5390625 7.80078125 C-13.44443439 10.26495406 -13.44443439 10.26495406 -12.9765625 13.86328125 C-12.39415536 17.2837018 -12.39415536 17.2837018 -10.1015625 19.23828125 C-5.76512649 19.55365841 -3.77503021 19.68725972 -0.1015625 17.23828125 C2.5859375 17.61328125 2.5859375 17.61328125 4.8984375 18.23828125 C5.2284375 19.55828125 5.5584375 20.87828125 5.8984375 22.23828125 C1.07673044 26.07092019 -2.92334865 27.30718326 -9.1015625 27.23828125 C-13.49557983 26.42078965 -16.18081593 23.76470272 -18.92578125 20.3671875 C-21.10422515 16.42282894 -20.93950621 12.57839996 -20.1015625 8.23828125 C-16.02345343 -0.06897797 -8.77140663 -3.17922731 0 0 Z " fill="#552A16" transform="translate(310.1015625,184.76171875)"/>
<path d="M0 0 C2.31 0 4.62 0 7 0 C8.65 4.62 10.3 9.24 12 14 C13.53666343 10.92667314 14.86711554 7.93664064 16.125 4.75 C16.47820312 3.85796875 16.83140625 2.9659375 17.1953125 2.046875 C17.46085937 1.37140625 17.72640625 0.6959375 18 0 C20.31 0 22.62 0 25 0 C24.3670307 3.45354226 23.51355353 6.71609583 22.40625 10.046875 C22.09816406 10.97371094 21.79007812 11.90054688 21.47265625 12.85546875 C21.15167969 13.81066406 20.83070313 14.76585937 20.5 15.75 C20.01853516 17.20599609 20.01853516 17.20599609 19.52734375 18.69140625 C19.21925781 19.61308594 18.91117187 20.53476563 18.59375 21.484375 C18.31208984 22.32709961 18.03042969 23.16982422 17.74023438 24.03808594 C17 26 17 26 16 27 C13.32941149 27.14115161 10.67567762 27.04247107 8 27 C0 8.53191489 0 8.53191489 0 0 Z " fill="#582E1A" transform="translate(239,184)"/>
<path d="M0 0 C6.93 0 13.86 0 21 0 C21 1.98 21 3.96 21 6 C18.69 6 16.38 6 14 6 C14 12.93 14 19.86 14 27 C11.69 27 9.38 27 7 27 C7 20.4 7 13.8 7 7 C4.69 7 2.38 7 0 7 C0 4.69 0 2.38 0 0 Z " fill="#582F1B" transform="translate(417,184)"/>
<path d="M0 0 C9.25333937 7.36490277 16.63812056 16.51357859 20 28 C15.16000831 27.30857262 11.62094167 25.8010463 8.3125 22.125 C7 20 7 20 6.125 17.5625 C5.12938874 14.77714398 5.12938874 14.77714398 2.375 12.8125 C-0.75506965 9.10583858 -0.41564458 6.70618674 -0.17578125 2.01171875 C-0.11777344 1.34785156 -0.05976563 0.68398437 0 0 Z " fill="#DA7E55" transform="translate(137,158)"/>
<path d="M0 0 C2.31 0 4.62 0 7 0 C7 9.24 7 18.48 7 28 C4.69 28 2.38 28 0 28 C0 18.76 0 9.52 0 0 Z " fill="#5E3622" transform="translate(273,184)"/>
<path d="M0 0 C2.31 0 4.62 0 7 0 C7 9.24 7 18.48 7 28 C4.69 28 2.38 28 0 28 C0 18.76 0 9.52 0 0 Z " fill="#5E3522" transform="translate(222,184)"/>
<path d="M0 0 C0.33 0 0.66 0 1 0 C1.33 8.25 1.66 16.5 2 25 C-3.02929688 25.29296875 -3.02929688 25.29296875 -8.05859375 25.5859375 C-9.02925781 25.72257812 -9.99992187 25.85921875 -11 26 C-11.33 26.66 -11.66 27.32 -12 28 C-11.454595 22.42959693 -9.98062013 17.96120775 -7.6875 12.875 C-7.39166016 12.18535156 -7.09582031 11.49570313 -6.79101562 10.78515625 C-4.98774217 6.71123825 -3.03583351 3.32711817 0 0 Z " fill="#DE855C" transform="translate(50,167)"/>
<path d="M0 0 C2.58203125 0.3671875 2.58203125 0.3671875 4.3828125 2.046875 C4.88167969 2.77132812 5.38054687 3.49578125 5.89453125 4.2421875 C6.40628906 4.96148437 6.91804687 5.68078125 7.4453125 6.421875 C8.58203125 8.3671875 8.58203125 8.3671875 8.58203125 10.3671875 C5.49029373 11.91305626 2.98773573 11.66078271 -0.41796875 11.3671875 C-2.85546875 9.6796875 -2.85546875 9.6796875 -4.41796875 7.3671875 C-4.79296875 4.7421875 -4.79296875 4.7421875 -4.41796875 2.3671875 C-2.41796875 0.3671875 -2.41796875 0.3671875 0 0 Z " fill="#D87B51" transform="translate(134.41796875,196.6328125)"/>
<path d="M0 0 C0.66 0.33 1.32 0.66 2 1 C-13.01241923 11.87856466 -13.01241923 11.87856466 -21.125 10.75 C-22.548125 10.37875 -22.548125 10.37875 -24 10 C-21.31664636 8.58897809 -18.70620225 7.52104624 -15.8125 6.625 C-10.34670308 4.8513308 -5.13715616 2.56857808 0 0 Z " fill="#704836" transform="translate(134,249)"/>
<path d="M0 0 C0.33 0 0.66 0 1 0 C1.05411124 2.41696872 1.09372278 4.83271787 1.125 7.25 C1.15013672 8.27287109 1.15013672 8.27287109 1.17578125 9.31640625 C1.21213482 13.0608235 1.07944349 15.82352727 -1 19 C-1.66 19 -2.32 19 -3 19 C-2.86722656 18.21496094 -2.73445312 17.42992187 -2.59765625 16.62109375 C-1.66757357 11.08812013 -0.75808113 5.55926159 0 0 Z " fill="#6E4633" transform="translate(160,167)"/>
<path d="M0 0 C2.31 0 4.62 0 7 0 C6.67 1.65 6.34 3.3 6 5 C4.02 5 2.04 5 0 5 C0 3.35 0 1.7 0 0 Z " fill="#FBF5F2" transform="translate(395,191)"/>
<path d="M0 0 C4.62 0 9.24 0 14 0 C13.01 0.495 13.01 0.495 12 1 C12 1.66 12 2.32 12 3 C10.56344146 3.08131463 9.1255517 3.13933559 7.6875 3.1875 C6.48673828 3.23970703 6.48673828 3.23970703 5.26171875 3.29296875 C3 3 3 3 0 0 Z " fill="#64331C" transform="translate(94,145)"/>
<path d="M0 0 C-0.47050781 0.31453125 -0.94101563 0.6290625 -1.42578125 0.953125 C-4.88002433 3.32747014 -7.72778504 5.39118801 -10 9 C-10.66 8.67 -11.32 8.34 -12 8 C-10.67667681 4.03003043 -7.9910601 2.23963605 -4.75390625 -0.14453125 C-3 -1 -3 -1 0 0 Z " fill="#E69570" transform="translate(91,138)"/>
<path d="M0 0 C-12.48519362 4.77676538 -12.48519362 4.77676538 -19 3 C-19 2.67 -19 2.34 -19 2 C-16.39740876 1.46989799 -13.793443 0.95062205 -11.1875 0.4375 C-10.44951172 0.28603516 -9.71152344 0.13457031 -8.95117188 -0.02148438 C-3.33984375 -1.11328125 -3.33984375 -1.11328125 0 0 Z " fill="#8E6D5E" transform="translate(116,236)"/>
<path d="M0 0 C3.67758005 3.28355362 5.81389118 6.62778237 8 11 C7.67 11.66 7.34 12.32 7 13 C6.34 13 5.68 13 5 13 C4.16209211 11.21046815 3.32980604 9.41830305 2.5 7.625 C1.80390625 6.12839844 1.80390625 6.12839844 1.09375 4.6015625 C0 2 0 2 0 0 Z " fill="#D99778" transform="translate(77,197)"/>
<path d="M0 0 C2.47859908 2.2008849 3.61210366 4.06372969 4.6875 7.1875 C4.93886719 7.90292969 5.19023438 8.61835938 5.44921875 9.35546875 C5.63097656 9.89816406 5.81273438 10.44085938 6 11 C5.01 11.33 4.02 11.66 3 12 C2.49440092 10.56445975 1.9957251 9.1264798 1.5 7.6875 C1.2215625 6.88699219 0.943125 6.08648437 0.65625 5.26171875 C0 3 0 3 0 0 Z " fill="#DA987A" transform="translate(61,201)"/>
<path d="M0 0 C2.98205122 2.55604391 4.58490064 5.35053322 6 9 C5.07421875 11.19140625 5.07421875 11.19140625 4 13 C3.32942113 11.2097939 2.6636531 9.41778511 2 7.625 C1.62875 6.62726563 1.2575 5.62953125 0.875 4.6015625 C0 2 0 2 0 0 Z " fill="#D89A7E" transform="translate(70,200)"/>
<path d="M0 0 C0.66 0.33 1.32 0.66 2 1 C-2.455 3.97 -2.455 3.97 -7 7 C-8.32 6.34 -9.64 5.68 -11 5 C-10.37351562 4.72285156 -9.74703125 4.44570312 -9.1015625 4.16015625 C-8.28429687 3.79792969 -7.46703125 3.43570313 -6.625 3.0625 C-5.81289062 2.70285156 -5.00078125 2.34320313 -4.1640625 1.97265625 C-2.76316215 1.3430097 -1.37374716 0.68687358 0 0 Z " fill="#825E4E" transform="translate(134,249)"/>
</svg>
